Coordinates
version=1
nRows=14
nColumns=33
inDegrees=yes

Units are S.I. units (second, meters, Newtons, ...)
Angles are in degrees.

endheader
time	ground_thorax_rot_x	ground_thorax_rot_y	ground_thorax_rot_z	ground_thorax_tx	ground_thorax_ty	ground_thorax_tz	clav_prot_r	clav_elev_r	scapula_abduction_r	scapula_elevation_r	scapula_upward_rot_r	scapula_winging_r	shoulder_elv_r	plane_of_elev_r	axial_rot_r	elbow_flexion_r	pro_sup_r	wrist_flex_r	wrist_dev_r	clav_prot_l	clav_elev_l	scapula_abduction_l	scapula_elevation_l	scapula_upward_rot_l	scapula_winging_l	shoulder_elv_l	plane_of_elev_l	axial_rot_l	elbow_flexion_l	pro_sup_l	wrist_flex_l	wrist_dev_l
      7.81000000	    -40.45356428	    -10.03635032	      9.85158569	   -179.42595288	    874.29010877	     -8.55508932	      3.57586649	    -45.00000000	     39.80590738	    -45.00000000	     -1.82405548	    610.24960671	  -2089.07650762	     22.28428549	   -179.99999979	   1444.41383239	    -62.21226013	     22.70516510	      8.46837693	     14.72987823	     41.39272800	    -39.78743077	    -45.00000000	    -32.49620918	   1890.62044391	  -2437.60837029	     14.88709093	    179.99999979	   -364.99246987	   -120.97940793	      8.99395261	    -23.16876093
      7.82000000	    -40.52506281	     -9.78775911	      9.47779145	   -177.41360140	    877.25486886	     -8.48682279	      3.58488319	    -45.00000000	     40.08247619	    -45.00000000	     -0.54861994	    610.32155174	  -2088.87837124	     22.43034830	   -179.99999979	   1444.50961203	    -62.47008823	     22.96474380	      8.53933021	     14.29030012	     41.53949120	    -40.25172729	    -45.00000000	    -31.66011993	   1891.01863675	  -2437.53090404	     14.80412577	    179.99999979	   -365.04824903	   -122.24688152	      9.14768251	    -23.19206608
      7.83000000	    -40.57140571	     -9.46570884	      8.96775718	   -175.28877260	    880.17607326	     -8.42057110	      3.36713646	    -45.00000000	     40.61088818	    -45.00000000	      0.91335321	    610.44741964	  -2088.67644825	     22.37793690	   -179.99999979	   1444.32477678	    -62.78132106	     23.00539940	      8.65206718	     14.58799144	     41.72210980	    -40.55653292	    -45.00000000	    -30.71079243	   1891.32005864	  -2437.44683920	     14.87276918	    179.99999979	   -364.84495952	   -123.96230109	      9.42245687	    -23.18255904
      7.84000000	    -40.63561061	     -9.06488327	      8.41986464	   -173.04771487	    883.01530844	     -8.36054877	      3.08185422	    -45.00000000	     41.28068554	    -45.00000000	      3.08118356	    610.44442194	  -2088.25714408	     22.24817653	   -179.99999979	   1444.31792534	    -63.06930059	     22.99644516	      8.85148015	     14.80960323	     42.18827380	    -40.87308070	    -45.00000000	    -29.16338696	   1891.73040604	  -2437.48537120	     14.85094670	    179.99999979	   -364.55932464	   -126.25791747	      9.79893660	    -23.14037747
      7.85000000	    -40.74864175	     -8.79155403	      8.06242815	   -170.68611267	    885.72602908	     -8.31717676	      3.29465232	    -45.00000000	     41.29459090	    -45.00000000	      4.01344916	    610.53685462	  -2088.24299131	     22.55582787	   -179.99999979	   1444.35731077	    -63.34423883	     23.38713598	      8.82273223	     13.89452071	     42.07198738	    -41.36765293	    -45.00000000	    -28.17816825	   1892.14478677	  -2437.40952320	     14.76027948	    179.99999979	   -364.45949098	   -128.43239843	     10.10384352	    -23.09215844
      7.86000000	    -40.82312449	     -7.31783026	      2.89014418	   -168.19129975	    888.27151102	     -8.28223174	      3.25261718	    -45.00000000	     45.00000000	    -45.00000000	     13.12196538	    610.92816258	  -2088.16207604	     21.92085264	   -179.99999979	   1444.30115569	    -60.41166074	     23.52057296	      8.38592991	     -2.14210863	     43.54402441	    -45.00000000	    -45.00000000	     35.49978546	   1915.75169446	  -2432.28084449	     10.39709788	    179.99999979	   -344.92142063	   -165.96968373	     13.21546204	    -12.04290149
      7.87000000	    -40.83568451	     -6.90403433	      2.37589481	   -165.57828286	    890.61961714	     -8.24732242	      2.95004816	    -45.00000000	     45.00000000	    -45.00000000	     14.82756358	    611.39998664	  -2087.79377483	     21.73342661	   -179.99999979	   1444.22209168	    -62.02696145	     23.46183785	      8.83867602	     -2.01340493	     43.50982785	    -45.00000000	    -45.00000000	     36.85686511	   1915.47966518	  -2431.95574936	     10.26180812	    179.99999979	   -345.50340265	   -160.10448308	     13.45375647	    -12.61235468
      7.88000000	    -40.84959329	     -6.66086756	      2.00821337	   -162.83162343	    892.74207006	     -8.19094289	      2.61360171	    -45.00000000	     45.00000000	    -45.00000000	     15.87245713	    611.70460175	  -2087.65129143	     21.89874897	   -179.99999979	   1444.25823656	    -63.28129970	     23.66792768	      9.00819864	     -2.55296925	     43.30719484	    -45.00000000	    -45.00000000	     38.36298027	   1915.63022975	  -2431.68988872	     10.45743929	    179.99999979	   -345.77709617	   -157.10410500	     13.51519981	    -12.97507704
      7.89000000	    -40.87873409	     -6.42194531	      1.66413196	   -159.95466973	    894.60882568	     -8.10673147	      2.37807300	    -45.00000000	     45.00000000	    -45.00000000	     16.95603253	    612.03458112	  -2087.52240058	     21.94413387	   -179.99999979	   1444.19074280	    -64.32870619	     23.79253040	      9.14706676	     -3.02245952	     43.03052115	    -45.00000000	    -45.00000000	     40.01924907	   1915.69728147	  -2431.42024811	     10.53305709	    179.99999979	   -345.89515513	   -155.91532009	     13.45994904	    -13.06308528
      7.90000000	    -40.91438621	     -6.17503644	      1.28216344	   -156.94700281	    896.19571521	     -7.99098811	      2.14474223	    -45.00000000	     45.00000000	    -45.00000000	     18.12315378	    612.33364523	  -2087.45977654	     22.01795780	   -179.99999979	   1444.16183438	    -65.35767276	     23.88156983	      9.28817626	     -3.39922993	     42.70833099	    -45.00000000	    -45.00000000	     41.80440423	   1915.83131667	  -2431.18393127	     10.61536356	    179.99999979	   -345.90129767	   -155.62574459	     13.39967809	    -13.03680686
      7.91000000	    -41.00848775	     -6.04679803	      1.04383664	   -153.81017115	    897.48038968	     -7.84123597	      1.90253073	    -45.00000000	     45.00000000	    -45.00000000	     19.23202905	    612.63442415	  -2087.42730117	     21.94019287	   -179.99999979	   1444.07881025	    -66.38847935	     23.92649175	      9.42199863	     -3.31796303	     42.53264864	    -45.00000000	    -45.00000000	     43.30745378	   1915.82517894	  -2430.97873779	     10.56715007	    179.99999979	   -346.04354552	   -155.78660839	     13.28509820	    -12.98049974
      7.92000000	    -41.08347883	     -5.83431157	      0.70397920	   -150.54032367	    898.44703557	     -7.65606669	      1.53276090	    -45.00000000	     45.00000000	    -45.00000000	     20.31985076	    613.08081835	  -2087.34671365	     21.81762400	   -179.99999979	   1443.97235506	    -67.52899601	     23.87656794	      9.58695939	     -3.37363812	     42.27606830	    -45.00000000	    -45.00000000	     45.00000000	   1915.82904516	  -2430.77438898	     10.54319688	    179.99999979	   -345.97296205	   -156.07556258	     13.15887828	    -12.83939656
      7.93000000	    -41.18378170	     -5.93687844	      0.73215557	   -147.14068250	    899.08387967	     -7.43613499	      1.15755759	    -45.00000000	     45.00000000	    -45.00000000	     20.83347203	    613.59503141	  -2087.30210912	     21.61231014	   -179.99999979	   1443.93842101	    -68.66726886	     23.69947416	      9.77514784	     -2.37287520	     42.28138178	    -45.00000000	    -45.00000000	     45.00000000	   1915.21955336	  -2431.02496584	     10.19686716	    179.99999979	   -346.06579008	   -156.26812252	     13.11602651	    -12.87182764
      7.94000000	    -41.30481664	     -5.79750201	      0.44789803	   -143.59747749	    899.38962992	     -7.18200537	      1.19491433	    -45.00000000	     45.00000000	    -45.00000000	     22.08990471	    613.42090137	  -2087.53971765	     22.01221272	   -179.99999979	   1444.15537398	    -70.17776892	     23.97841450	     10.00295902	     -4.23961402	     42.22021759	    -45.00000000	    -45.00000000	     45.00000000	   1915.67928061	  -2431.80205856	     10.97176125	    179.99999979	   -346.22420907	   -156.59841551	     13.48549938	    -13.04371872
